<?xml version="1.0" encoding="UTF-8" standalone="no"?>
<svg
   data-v-0dd9719b=""
   version="1.0"
   width="176.46196"
   height="76.105148"
   viewBox="0 0 176.46196 76.105148"
   preserveAspectRatio="xMidYMid"
   color-interpolation-filters="sRGB"
   id="svg20"
   sodipodi:docname="logo.svg"
   inkscape:version="1.2.1 (9c6d41e410, 2022-07-14)"
   xmlns:inkscape="http://www.inkscape.org/namespaces/inkscape"
   xmlns:sodipodi="http://sodipodi.sourceforge.net/DTD/sodipodi-0.dtd"
   xmlns="http://www.w3.org/2000/svg"
   xmlns:svg="http://www.w3.org/2000/svg">
  <sodipodi:namedview
     id="namedview22"
     pagecolor="#ffffff"
     bordercolor="#000000"
     borderopacity="0.25"
     inkscape:showpageshadow="2"
     inkscape:pageopacity="0.0"
     inkscape:pagecheckerboard="0"
     inkscape:deskcolor="#d1d1d1"
     showgrid="false"
     inkscape:zoom="3.328"
     inkscape:cx="71.514423"
     inkscape:cy="-5.1081731"
     inkscape:window-width="1920"
     inkscape:window-height="1014"
     inkscape:window-x="1912"
     inkscape:window-y="-8"
     inkscape:window-maximized="1"
     inkscape:current-layer="g14" />
  <g
     data-v-0dd9719b=""
     fill="#f9f9f9"
     class="basesvg"
     transform="translate(0,9.9999999)"
     id="g16">
    <g
       data-gra="path-name"
       fill-rule=""
       class="tp-name"
       id="g14">
      <g
         id="g12"
         style="fill:#e6e6e6;fill-opacity:1">
        <g
           id="g4"
           style="fill:#e6e6e6;fill-opacity:1">
          <path
             d="m 30.82,-0.63 c -0.86,-0.36 -1.93,-1.22 -2.38,-2.34 l -9.99,-30.21 h -7.91 c -0.3,0.76 2.28,0.26 1.52,3.04 L 3.09,-3.07 C 2.64,-1.9 1.57,-0.99 0.71,-0.63 0.3,-0.43 0,-0.28 0.1,-0.03 H 6.94 C 7.25,-0.79 4.51,-0.28 5.53,-3.22 l 1.72,-5.32 h 14.6 l 1.57,4.76 c 1.27,3.86 -1.62,2.89 -1.27,3.75 h 9.28 c 0.05,-0.25 -0.26,-0.4 -0.61,-0.6 z m -22.86,-9.99 6.59,-19.97 6.59,19.97 z m 27.52,10.59 h 21.04 l 0.51,-6.28 c -0.41,-0.31 -0.87,2.18 -1.27,2.79 -0.15,0.2 -0.81,1.26 -2.64,1.42 h -11.3 v -28.04 c 0,-2.28 2.03,-2.48 1.82,-3.04 h -8.16 c -0.2,0.56 1.83,0.76 1.83,3.04 v 27.07 c 0,2.28 -2.03,2.49 -1.83,3.04 z m 25.55,0 h 21.04 l 0.5,-6.28 c -0.4,-0.31 -0.86,2.18 -1.26,2.79 -0.16,0.2 -0.81,1.26 -2.64,1.42 h -11.3 v -28.04 c 0,-2.28 2.02,-2.48 1.82,-3.04 h -8.16 c -0.2,0.56 1.83,0.76 1.83,3.04 v 27.07 c 0,2.28 -2.03,2.49 -1.83,3.04 z m 40.65,0 c 9.43,0 15.31,-7.45 15.31,-16.57 0,-9.13 -5.67,-16.58 -15.31,-16.58 -9.68,0 -15.3,7.45 -15.3,16.58 0,9.12 5.83,16.57 15.3,16.57 z m 0,-31.07 c 6.8,0 10.75,6.49 10.75,14.5 0,8.01 -4.11,14.5 -10.75,14.5 -6.69,0 -10.79,-6.49 -10.79,-14.5 0,-8.01 4,-14.5 10.79,-14.5 z M 121,-0.03 h 11.96 c 9.07,0 16.52,-7.45 16.52,-16.57 0,-9.13 -7.45,-16.58 -16.52,-16.58 H 121 c -0.21,0.56 1.82,0.76 1.82,3.04 v 27.07 c 0,2.28 -2.03,2.49 -1.82,3.04 z m 6.33,-31.07 h 3.04 c 18.56,0 18.46,29 0,29 h -3.04 z m 44.2,24.21 c -0.2,6.28 -14.49,7.6 -15.56,-2.49 l -0.86,-0.25 V 0 c 0.96,0.15 1.07,-3.04 3.75,-1.47 1.93,0.86 3.65,1.47 6.59,1.47 3.96,0 10.75,-1.52 10.34,-8.92 -0.5,-9.89 -15.36,-9.33 -16.72,-15.92 -1.58,-7.5 12.46,-9.07 14.54,-1.21 l 0.86,0.15 -1.26,-7.25 c -0.66,-0.25 0.15,2.38 -2.28,1.32 -1.98,-0.87 -3.55,-1.32 -6.64,-1.32 -3.91,0 -9.84,1.47 -10.29,8.31 -0.71,10.44 17.79,10.34 17.53,17.95 z"
             transform="translate(-0.08064121,23.18)"
             id="path2"
             style="fill:#e6e6e6;fill-opacity:1" />
        </g>
        <!---->
        <!---->
        <!---->
        <!---->
        <!---->
        <!---->
        <g
           data-gra="path-name-1"
           fill="#f9f9f9"
           transform="translate(0,36.18515)"
           id="g10"
           style="fill:#e6e6e6;fill-opacity:1">
          <g
             id="g8"
             style="fill:#e6e6e6;fill-opacity:1">
            <path
               d="m 27.79,-0.57 c -0.78,-0.32 -1.74,-1.1 -2.15,-2.1 l -9,-27.25 H 9.51 c -0.28,0.69 2.05,0.23 1.37,2.75 L 2.79,-2.77 C 2.38,-1.71 1.42,-0.89 0.64,-0.57 0.27,-0.39 0,-0.25 0.09,-0.02 H 6.26 C 6.54,-0.71 4.07,-0.25 4.98,-2.9 L 6.54,-7.7 H 19.7 l 1.42,4.29 c 1.14,3.48 -1.47,2.61 -1.15,3.39 h 8.37 c 0.04,-0.23 -0.23,-0.37 -0.55,-0.55 z M 7.18,-9.58 13.12,-27.59 19.06,-9.58 Z M 32,0 h 7.36 c 0.18,-0.5 -1.65,-0.69 -1.65,-2.74 v -9.42 c 1.14,-0.04 2.33,-0.14 3.56,-0.36 l 7.41,10.42 c 0.87,1.37 2.1,2.1 4.16,2.1 1.23,0 2.47,0 3.66,0 0.13,-0.23 -0.14,-0.41 -0.51,-0.55 -0.82,-0.27 -1.96,-1.1 -2.83,-2.19 l -7.63,-10.74 c 4.2,-1.33 8.91,-3.93 8.77,-8.92 -0.14,-4.16 -4.29,-7.49 -9.96,-7.49 H 32 c -0.19,0.5 1.64,0.68 1.64,2.74 V -2.74 C 33.64,-0.69 31.81,-0.5 32,0 Z m 5.71,-28.02 c 3.98,0 11.79,-0.41 11.93,5.58 0.09,3.11 -1.83,7.49 -11.93,8.41 z m 22.53,28 h 5.17 c 0.18,-0.51 -1.65,-0.69 -1.65,-2.75 v -23.9 l 7.87,23.77 c 0.59,2.24 3.97,2.92 5.85,2.88 l 7.9,-23.91 v 21.16 c 0,2.06 -1.82,2.24 -1.64,2.75 h 7.36 c 0.18,-0.51 -1.65,-0.69 -1.65,-2.75 v -24.4 c 0,-2.06 1.83,-2.24 1.65,-2.75 h -5.9 l -9.1,27.57 -9.09,-27.57 h -6.77 c -0.18,0.51 1.65,0.69 1.65,2.75 v 24.4 c 0,2.06 -1.83,2.24 -1.65,2.75 z m 48.27,0 c 8.5,0 13.81,-6.72 13.81,-14.95 0,-8.23 -5.12,-14.95 -13.81,-14.95 -8.73,0 -13.8,6.72 -13.8,14.95 0,8.23 5.25,14.95 13.8,14.95 z m 0,-28.02 c 6.13,0 9.69,5.85 9.69,13.07 0,7.22 -3.7,13.07 -9.69,13.07 -6.03,0 -9.73,-5.85 -9.73,-13.07 0,-7.22 3.61,-13.07 9.73,-13.07 z M 125.93,0 h 7.36 c 0.18,-0.5 -1.65,-0.69 -1.65,-2.74 v -9.42 c 1.14,-0.04 2.33,-0.14 3.57,-0.36 l 7.4,10.42 c 0.87,1.37 2.1,2.1 4.16,2.1 1.23,0 2.47,0 3.66,0 0.13,-0.23 -0.14,-0.41 -0.51,-0.55 -0.82,-0.27 -1.96,-1.1 -2.83,-2.19 l -7.63,-10.74 c 4.2,-1.33 8.91,-3.93 8.77,-8.92 -0.13,-4.16 -4.29,-7.49 -9.96,-7.49 h -12.34 c -0.19,0.5 1.64,0.68 1.64,2.74 v 24.41 c 0,2.05 -1.83,2.24 -1.64,2.74 z m 5.71,-28.02 c 3.98,0 11.79,-0.41 11.93,5.58 0.09,3.11 -1.83,7.49 -11.93,8.41 z m 19.47,-1.23 c 0.64,0.41 1.51,1.09 2.29,2.56 l 8.13,14.99 v 9.51 c -0.13,1.5 -1.73,1.73 -1.55,2.19 h 7.36 c 0.14,-0.32 -0.6,-0.41 -1.1,-1.01 -0.18,-0.22 -0.59,-0.64 -0.64,-1.73 v -9.74 l 8.64,-14.9 c 0.64,-0.96 1.33,-1.51 1.83,-1.83 0.27,-0.23 0.5,-0.41 0.46,-0.68 h -5.67 c -0.14,0.5 0.78,0.41 1.19,1.14 0.32,0.64 -0.51,2.15 -0.51,2.15 l -6.85,11.79 -6.54,-12.02 c -0.68,-1.33 -0.59,-1.74 -0.46,-1.97 0.37,-0.68 1.28,-0.64 1.19,-1.09 h -8.22 c -0.1,0.27 0.13,0.45 0.45,0.64 z"
               transform="translate(-0.07257944,29.92)"
               id="path6"
               style="fill:#e6e6e6;fill-opacity:1" />
          </g>
        </g>
      </g>
    </g>
    <!---->
  </g>
  <defs
     v-gra="od"
     id="defs18" />
</svg>
